<?xml version="1.0" encoding="utf-8"?>
<!-- Generator: Adobe Illustrator 22.1.0, SVG Export Plug-In . SVG Version: 6.00 Build 0)  -->
<svg version="1.1" id="Layer_1" xmlns="http://www.w3.org/2000/svg" xmlns:xlink="http://www.w3.org/1999/xlink" x="0px" y="0px"
	 viewBox="0 0 1440 900" style="enable-background:new 0 0 1440 900;" xml:space="preserve">
<style type="text/css">
	.st0{fill:#191919;}
</style>
<title>Asset 2</title>
<g>
	<path class="st0" d="M760.7,365.6c-9.3-7-20.4-10.6-34-10.6h-62.3v87.6H727c13.6,0,25-3.9,34-11.6c8.9-7.8,13.4-18.3,13.4-31.8
		C774.4,383.9,769.8,372.7,760.7,365.6z"/>
	<path class="st0" d="M-125.9-78.7V978.7h1691.9V-78.7H-125.9z M796.8,462.5c-16.8,15.4-39.7,23-68.7,23h-63.9v102.6h-46.5V311.9
		h110.1c28.2,0,50.9,7.8,68.3,23.3c17.4,15.5,26,36.8,26,63.9C822.2,425.9,813.8,447.1,796.8,462.5z"/>
</g>
</svg>
