<?xml version="1.0" encoding="utf-8"?>
<!-- Generator: Adobe Illustrator 22.1.0, SVG Export Plug-In . SVG Version: 6.00 Build 0)  -->
<svg version="1.1" id="Layer_1" xmlns="http://www.w3.org/2000/svg" xmlns:xlink="http://www.w3.org/1999/xlink" x="0px" y="0px"
	 viewBox="0 0 1440 900" style="enable-background:new 0 0 1440 900;" xml:space="preserve">
<style type="text/css">
	.st0{fill:#191919;}
</style>
<title>Asset 2</title>
<g>
	<path class="st0" d="M754.6,378.2c-7.9-6-17.4-9-28.9-9h-53v74.6H726c11.6,0,21.3-3.3,28.9-9.9c7.6-6.6,11.4-15.6,11.4-27.1
		C766.3,393.7,762.4,384.2,754.6,378.2z"/>
	<path class="st0" d="M0,0v900h1440V0H0z M785.4,460.6c-14.3,13.1-33.8,19.6-58.5,19.6h-54.4v87.3h-39.6v-235h93.7
		c24,0,43.3,6.6,58.1,19.8c14.8,13.2,22.1,31.3,22.1,54.4C807,429.5,799.8,447.5,785.4,460.6z"/>
</g>
</svg>
